<svg width="538" height="385" viewBox="0 0 538 385" fill="none" xmlns="http://www.w3.org/2000/svg">
<path d="M491.158 384.826H28.8992C25.6633 384.826 23.0588 382.225 23.0588 378.993C23.0588 375.762 25.6633 373.161 28.8992 373.161H491.158C494.394 373.161 496.998 375.762 496.998 378.993C496.919 382.225 494.315 384.826 491.158 384.826Z" fill="#DADEF2"/>
<path d="M82.0941 357.32C82.0941 357.32 82.2519 331.233 74.3595 317.205C66.4671 303.176 65.4411 299.866 69.9398 287.808C74.4385 275.749 76.4116 266.843 66.625 256.283C56.8384 245.722 56.9173 240.362 61.4949 228.304C65.9936 216.246 63.468 202.296 48.867 197.331C34.2661 192.366 19.5862 211.832 22.1117 227.595C24.6373 243.357 36.2392 252.184 28.7414 271.651C21.1646 291.118 35.371 298.526 41.2903 306.171C47.2096 313.816 37.3441 325.716 42.5531 331.154C47.841 336.592 83.5147 376.944 82.0941 357.32Z" fill="#7499F7"/>
<path d="M76.2537 359.527C77.0429 354.01 74.6752 348.572 72.4653 343.607C70.4133 338.878 67.8877 334.386 65.1254 330.051C60.0742 322.249 53.05 314.998 51.0769 305.619C49.1038 296.004 52.8132 286.389 52.8921 276.774C52.8921 274.331 52.6554 271.809 52.024 269.444C51.3926 267.001 50.2876 264.794 49.1827 262.588C48.0778 260.381 46.8939 258.253 45.8679 255.967C44.8419 253.682 44.1316 251.317 43.658 248.874C41.7638 238.471 44.6051 228.068 47.9988 218.374C48.4724 217.113 48.867 215.852 49.3406 214.591C49.4195 214.433 49.7352 214.512 49.6563 214.67C46.1047 224.679 42.5531 235.082 43.5791 245.8C43.8159 248.48 44.3683 251.081 45.3154 253.603C46.1836 255.967 47.2885 258.174 48.4724 260.46C50.6823 264.715 52.7343 268.971 53.2078 273.858C54.076 283.63 50.1298 293.167 51.0769 302.939C52.024 312.791 58.8904 320.357 64.2572 328.238C67.1774 332.494 69.703 336.986 71.9129 341.636C74.0438 346.208 76.3326 351.094 76.7272 356.217C76.8062 357.478 76.8062 358.66 76.5694 359.921C76.5694 359.842 76.2537 359.763 76.2537 359.527Z" fill="#A8BEF7"/>
<path d="M95.9058 377.969C95.9058 377.969 87.0663 357.162 75.8591 348.73C64.6518 340.297 62.7577 338.011 62.2052 326.899C61.6527 315.786 60.1532 307.984 48.7092 303.018C37.2652 298.053 35.5288 293.718 34.9764 282.527C34.4239 271.415 27.5575 261.169 14.2982 262.272C1.03897 263.376 -4.01217 283.788 3.48562 295.452C10.9834 307.117 23.2167 310.111 23.927 328.238C24.6373 346.365 38.449 347.39 45.789 351.409C53.1289 355.429 49.3406 368.354 55.4177 370.876C61.4949 373.319 103.798 393.18 95.9058 377.969Z" fill="#00B5F2"/>
<path d="M92.0385 381.831C90.8547 377.417 87.382 374.028 84.1461 371.033C80.6735 367.723 76.8851 364.728 72.86 362.128C66.0725 357.635 57.8644 354.246 53.2079 347.232C48.7092 340.533 48.2356 332.258 45.3154 324.928C44.6051 323.115 43.658 321.303 42.5531 319.648C41.2903 317.835 39.7907 316.338 38.1333 314.919C34.8185 312.082 31.2669 309.56 28.6624 306.013C23.0588 298.368 21.5593 288.674 20.9279 279.453C20.8489 278.192 20.77 277.01 20.6911 275.749C20.6911 275.513 21.0068 275.513 21.0068 275.749C21.6382 285.285 22.4274 295.216 27.4786 303.57C28.6624 305.461 30.0042 307.274 31.5826 308.85C33.1611 310.427 34.8975 311.766 36.6338 313.185C38.2912 314.604 40.0275 316.022 41.4482 317.599C42.7109 319.096 43.737 320.672 44.6051 322.406C48.0778 329.499 48.4724 337.775 52.1818 344.789C56.207 352.434 64.1783 356.138 71.2026 360.551C75.1488 362.995 78.9371 365.832 82.4098 368.905C84.1461 370.403 85.8035 372.058 87.382 373.713C88.8027 375.289 90.2233 376.944 91.1704 378.836C91.6439 379.703 91.9596 380.649 92.2753 381.594C92.4332 381.91 92.0385 381.988 92.0385 381.831Z" fill="#A7DFF2"/>
<path d="M472.848 358.66C554.218 358.66 539.381 290.881 528.016 277.01C512.783 258.332 502.76 242.569 502.76 233.9C502.76 211.911 516.966 202.454 516.966 174.16C516.966 145.866 496.998 129.473 473.005 129.473H473.084C449.328 129.473 428.887 145.866 428.887 174.16C428.887 202.454 443.093 211.911 443.093 233.9C443.093 242.569 433.07 258.332 417.837 277.01C406.551 290.881 391.792 358.66 473.084 358.66H472.848Z" fill="#7499F7"/>
<path d="M494.552 270.784C494.552 279.532 490.842 286.547 483.581 291.669C479.793 294.349 476.004 295.768 473.952 296.398V169.983H471.348V195.045C469.769 194.572 467.086 193.705 464.482 192.129C459.115 188.898 456.352 184.563 456.352 179.125H453.985C453.985 185.43 457.221 190.632 463.298 194.257C466.534 196.149 469.691 197.173 471.348 197.567V327.45C460.614 327.214 452.406 324.14 446.803 318.229C438.358 309.245 438.989 296.713 438.989 296.477L437.726 296.398L436.463 296.319C436.463 296.871 435.674 310.111 444.908 319.963C450.986 326.426 459.904 329.815 471.348 330.051V378.757H473.952V298.92C475.926 298.368 480.345 296.871 484.844 293.718C490.369 289.857 496.84 282.764 496.84 270.784H494.552Z" fill="#A8BEF7"/>
<path d="M419.495 290.172H66.4671V96.7661C66.4671 89.1213 72.6232 82.9739 80.2788 82.9739H405.683C413.339 82.9739 419.495 89.1213 419.495 96.7661V290.172Z" fill="#332A75"/>
<path d="M402.597 273.224L402.597 99.9153L83.3492 99.9153L83.3492 273.224L402.597 273.224Z" fill="white"/>
<path d="M419.495 290.172H66.4671V318.466C66.4671 326.11 72.6232 332.258 80.2788 332.258H405.683C413.339 332.258 419.495 326.11 419.495 318.466V290.172Z" fill="#DADEF2"/>
<path d="M300.635 367.408H185.327C182.091 367.408 179.487 370.009 179.487 373.24C179.487 376.472 182.091 379.072 185.327 379.072H300.635C303.871 379.072 306.475 376.472 306.475 373.24C306.475 370.009 303.871 367.408 300.635 367.408Z" fill="#B7BBDB"/>
<path d="M278.221 332.179H207.741L201.506 367.408H284.456L278.221 332.179Z" fill="#9FA3BF"/>
<path d="M242.942 321.224C248.129 321.224 252.334 317.025 252.334 311.845C252.334 306.666 248.129 302.467 242.942 302.467C237.754 302.467 233.55 306.666 233.55 311.845C233.55 317.025 237.754 321.224 242.942 321.224Z" fill="#9FA3BF"/>
<path d="M402.605 99.4457H83.3569V273.621H402.605V99.4457Z" fill="#DADEF2"/>
<path d="M343.886 115.996H205.689V253.997H343.886V115.996Z" fill="white"/>
<path d="M198.507 115.996H140.893V253.997H198.507V115.996Z" fill="white"/>
<path d="M190.22 182.041H149.259C147.443 182.041 146.023 180.623 146.023 178.81C146.023 176.997 147.443 175.579 149.259 175.579H190.22C192.035 175.579 193.456 176.997 193.456 178.81C193.456 180.623 191.957 182.041 190.22 182.041Z" fill="#DADEF2"/>
<path d="M190.22 194.572H149.259C147.443 194.572 146.023 193.154 146.023 191.341C146.023 189.528 147.443 188.11 149.259 188.11H190.22C192.035 188.11 193.456 189.528 193.456 191.341C193.456 193.075 191.957 194.572 190.22 194.572Z" fill="#DADEF2"/>
<path d="M245.388 224.521H222.5C220.685 224.521 219.264 223.102 219.264 221.29C219.264 219.477 220.685 218.058 222.5 218.058H245.388C247.203 218.058 248.624 219.477 248.624 221.29C248.624 223.102 247.203 224.521 245.388 224.521Z" fill="#DADEF2"/>
<path d="M289.586 224.521H255.49C253.675 224.521 252.255 223.102 252.255 221.29C252.255 219.477 253.675 218.058 255.49 218.058H289.586C291.401 218.058 292.822 219.477 292.822 221.29C292.822 223.102 291.401 224.521 289.586 224.521Z" fill="#DADEF2"/>
<path d="M263.462 237.052H222.5C220.685 237.052 219.264 235.634 219.264 233.821C219.264 232.008 220.685 230.59 222.5 230.59H263.462C265.277 230.59 266.698 232.008 266.698 233.821C266.698 235.634 265.277 237.052 263.462 237.052Z" fill="#DADEF2"/>
<path d="M314.526 237.052H273.564C271.749 237.052 270.328 235.634 270.328 233.821C270.328 232.008 271.749 230.59 273.564 230.59H314.526C316.341 230.59 317.762 232.008 317.762 233.821C317.841 235.634 316.341 237.052 314.526 237.052Z" fill="#DADEF2"/>
<path d="M189.668 246.825H149.732C147.68 246.825 145.944 245.17 145.944 243.042V227.28C145.944 225.23 147.601 223.497 149.732 223.497H189.668C191.72 223.497 193.456 225.152 193.456 227.28V243.042C193.456 245.17 191.799 246.825 189.668 246.825Z" fill="#DADEF2"/>
<path d="M169.937 168.643C182.926 168.643 193.456 158.128 193.456 145.157C193.456 132.186 182.926 121.671 169.937 121.671C156.947 121.671 146.417 132.186 146.417 145.157C146.417 158.128 156.947 168.643 169.937 168.643Z" fill="#DADEF2"/>
<path d="M169.937 168.643C180.834 168.643 189.668 163.844 189.668 157.925C189.668 152.005 180.834 147.206 169.937 147.206C159.04 147.206 150.206 152.005 150.206 157.925C150.206 163.844 159.04 168.643 169.937 168.643Z" fill="#6956F2"/>
<path d="M169.937 153.432C176.736 153.432 182.249 147.928 182.249 141.137C182.249 134.347 176.736 128.843 169.937 128.843C163.137 128.843 157.624 134.347 157.624 141.137C157.624 147.928 163.137 153.432 169.937 153.432Z" fill="#6956F2"/>
<path d="M255.49 127.266H216.975V165.727H255.49V127.266Z" fill="#F2DADA" stroke="white" stroke-width="4.7722" stroke-miterlimit="10"/>
<path d="M294.084 127.266H255.569V165.727H294.084V127.266Z" fill="#DAE7F2" stroke="white" stroke-width="4.7722" stroke-miterlimit="10"/>
<path d="M332.599 127.266H294.084V165.727H332.599V127.266Z" fill="#DEDAF2" stroke="white" stroke-width="4.7722" stroke-miterlimit="10"/>
<path d="M255.49 165.806H216.975V204.266H255.49V165.806Z" fill="#DADEF2" stroke="white" stroke-width="4.7722" stroke-miterlimit="10"/>
<path d="M294.084 165.806H255.569V204.266H294.084V165.806Z" fill="#F2DADA" stroke="white" stroke-width="4.7722" stroke-miterlimit="10"/>
<path d="M332.599 165.806H294.084V204.266H332.599V165.806Z" fill="#DAE7F2" stroke="white" stroke-width="4.7722" stroke-miterlimit="10"/>
<path d="M433.149 144.842H310.737C308.37 144.842 306.475 142.95 306.475 140.586V46.2473H437.411V140.586C437.411 142.95 435.516 144.842 433.149 144.842Z" fill="#A5DFF2"/>
<path d="M427.545 53.9709H314.131V135.778H427.545V53.9709Z" fill="white"/>
<path d="M415.391 99.6821H411.997C411.445 96.6872 410.34 94.1652 408.761 91.7221L411.208 89.2789C411.76 88.7272 411.76 87.8602 411.208 87.3086L405.999 82.1069C405.446 81.5552 404.578 81.5552 404.026 82.1069L401.658 84.4713C399.211 82.8951 396.528 81.7129 393.687 81.0824V77.6934C393.687 76.9053 393.055 76.196 392.266 76.196H384.926C384.137 76.196 383.505 76.9841 383.505 77.6934V81.0036C380.664 81.5552 377.981 82.6586 375.534 84.2349L373.166 81.7917C372.614 81.24 371.746 81.24 371.193 81.7917L365.984 86.9933C365.432 87.545 365.432 88.4119 365.984 88.9636L368.352 91.4068C366.773 93.85 365.59 96.2932 364.958 99.4457H361.564C360.775 99.4457 360.223 99.9186 360.223 100.707V108.036C360.223 108.824 360.854 109.297 361.564 109.297H364.879C365.432 112.134 366.537 114.893 368.115 117.336L365.669 119.779C365.116 120.331 365.116 121.198 365.669 121.75L370.878 126.951C371.43 127.503 372.298 127.503 372.851 126.951L375.218 124.587C377.665 126.163 380.348 127.345 383.111 127.976V131.365C383.111 132.153 383.742 132.862 384.531 132.862H391.871C392.661 132.862 393.292 132.074 393.292 131.365V128.055C396.133 127.503 398.817 126.4 401.263 124.823L403.71 127.266C404.262 127.818 405.131 127.818 405.683 127.266L410.892 122.065C411.445 121.513 411.445 120.646 410.892 120.095L408.524 117.809C410.103 115.366 411.287 112.607 411.918 110.007H415.312C416.101 110.007 416.654 109.218 416.654 108.43V101.101C416.733 100.313 416.101 99.6821 415.391 99.6821ZM388.478 116.706C381.769 116.706 376.323 111.268 376.323 104.568C376.323 97.8694 381.769 92.4314 388.478 92.4314C395.186 92.4314 400.632 97.8694 400.632 104.568C400.632 111.268 395.186 116.706 388.478 116.706Z" fill="#56CBF2"/>
<path d="M366.537 74.8562H364.169C363.774 72.7283 362.985 70.9156 361.88 69.1817L363.617 67.4478C364.011 67.0538 364.011 66.4233 363.617 66.0292L359.907 62.325C359.512 61.9309 358.881 61.9309 358.486 62.325L356.829 63.9801C355.093 62.8767 353.199 62.0098 351.147 61.6157V59.1725C351.147 58.6208 350.673 58.0691 350.121 58.0691H344.912C344.359 58.0691 343.886 58.6208 343.886 59.1725V61.5369C341.912 61.9309 339.939 62.7191 338.203 63.8224L336.467 62.0886C336.072 61.6945 335.441 61.6945 335.046 62.0886L331.337 65.7928C330.942 66.1868 330.942 66.8173 331.337 67.2114L332.994 68.9453C331.889 70.6791 331.021 72.413 330.626 74.6986H328.18C327.627 74.6986 327.233 75.0138 327.233 75.5655V80.7671C327.233 81.3188 327.627 81.6341 328.18 81.6341H330.547C330.942 83.6044 331.731 85.6535 332.836 87.3874L331.1 89.1212C330.705 89.5153 330.705 90.1458 331.1 90.5399L334.809 94.2441C335.204 94.6381 335.835 94.6381 336.23 94.2441L337.887 92.589C339.624 93.6924 341.518 94.5593 343.57 94.9534V97.3966C343.57 97.9482 344.043 98.4999 344.596 98.4999H349.805C350.357 98.4999 350.831 97.9482 350.831 97.3966V95.0322C352.804 94.6381 354.777 93.85 356.513 92.7466L358.25 94.4805C358.644 94.8746 359.276 94.8746 359.67 94.4805L363.38 90.7763C363.774 90.3822 363.774 89.7517 363.38 89.3577L361.722 87.7026C362.827 85.9687 363.695 83.9984 364.09 82.1069H366.537C367.089 82.1069 367.484 81.5552 367.484 81.0036V75.8019C367.484 75.2502 367.089 74.8562 366.537 74.8562ZM347.358 86.9933C342.544 86.9933 338.677 83.1315 338.677 78.3239C338.677 73.5164 342.544 69.6546 347.358 69.6546C352.173 69.6546 356.04 73.5164 356.04 78.3239C355.961 83.1315 352.094 86.9933 347.358 86.9933Z" fill="#6956F2"/>
<path d="M433.149 33.0068H310.737C308.37 33.0068 306.475 34.8983 306.475 37.2626V46.1685H437.411V37.2626C437.411 34.8983 435.516 33.0068 433.149 33.0068Z" fill="#332A75"/>
<path d="M317.919 39.7058C317.919 40.7304 317.051 41.5973 316.025 41.5973C314.999 41.5973 314.131 40.7304 314.131 39.7058C314.131 38.6813 314.999 37.8143 316.025 37.8143C317.051 37.8143 317.919 38.6024 317.919 39.7058Z" fill="#FF1800"/>
<path d="M326.759 39.7058C326.759 40.7304 325.891 41.5973 324.865 41.5973C323.839 41.5973 322.971 40.7304 322.971 39.7058C322.971 38.6813 323.839 37.8143 324.865 37.8143C325.97 37.8143 326.759 38.6024 326.759 39.7058Z" fill="#FFC900"/>
<path d="M333.783 41.5973C334.829 41.5973 335.677 40.7505 335.677 39.7058C335.677 38.6612 334.829 37.8143 333.783 37.8143C332.737 37.8143 331.889 38.6612 331.889 39.7058C331.889 40.7505 332.737 41.5973 333.783 41.5973Z" fill="#00D694"/>
<path d="M331.652 120.41H329.758C329.363 120.41 329.048 120.095 329.048 119.7V117.494C329.048 117.1 329.363 116.784 329.758 116.784H331.652C332.047 116.784 332.363 117.1 332.363 117.494V119.7C332.363 120.095 332.047 120.41 331.652 120.41Z" fill="#DADEF2"/>
<path d="M331.652 127.661H329.758C329.363 127.661 329.048 127.345 329.048 126.951V124.744C329.048 124.35 329.363 124.035 329.758 124.035H331.652C332.047 124.035 332.363 124.35 332.363 124.744V126.951C332.363 127.345 332.047 127.661 331.652 127.661Z" fill="#DADEF2"/>
<path d="M347.516 120.41H335.756C334.73 120.41 333.941 119.622 333.941 118.597C333.941 117.573 334.73 116.784 335.756 116.784H347.516C348.542 116.784 349.331 117.573 349.331 118.597C349.41 119.543 348.542 120.41 347.516 120.41Z" fill="#DADEF2"/>
<path d="M353.83 127.661H335.756C334.73 127.661 333.941 126.872 333.941 125.848C333.941 124.823 334.73 124.035 335.756 124.035H353.83C354.856 124.035 355.645 124.823 355.645 125.848C355.645 126.872 354.856 127.661 353.83 127.661Z" fill="#DADEF2"/>
<path d="M416.654 365.989C468.191 365.989 458.799 323.116 451.617 314.289C441.988 302.467 435.595 292.457 435.595 287.019C435.595 273.07 444.593 267.08 444.593 249.189C444.593 231.299 431.965 220.896 416.733 220.896C401.737 220.896 388.793 231.299 388.793 249.189C388.793 267.08 397.791 273.148 397.791 287.019C397.791 292.536 391.477 302.467 381.769 314.289C374.587 323.116 365.195 365.989 416.733 365.989H416.654Z" fill="#00B5F2"/>
<path d="M430.386 310.348C430.386 315.865 428.019 320.357 423.441 323.588C421.073 325.243 418.627 326.189 417.364 326.583V246.51H415.706V262.351C414.68 262.036 413.023 261.484 411.366 260.538C407.972 258.489 406.236 255.731 406.236 252.263H404.736C404.736 256.204 406.788 259.514 410.655 261.878C412.707 263.06 414.68 263.691 415.785 263.927V346.208C408.998 346.05 403.789 344.08 400.237 340.375C394.871 334.701 395.265 326.741 395.344 326.583L394.555 326.504L393.766 326.426C393.766 326.82 393.292 335.174 399.132 341.4C403 345.498 408.603 347.626 415.864 347.784V378.599H417.522V328.081C418.785 327.765 421.626 326.741 424.467 324.771C427.94 322.327 432.123 317.835 432.123 310.269H430.386V310.348Z" fill="#A7DFF2"/>
<path d="M107.744 367.644L173.804 301.678C176.882 305.619 180.434 309.166 184.38 312.239L118.32 378.205C116.9 379.624 114.927 380.412 113.032 380.412C111.138 380.412 109.244 379.703 107.744 378.205C104.824 375.289 104.824 370.561 107.744 367.644Z" fill="#494E6D"/>
<path d="M162.123 267.237C162.123 298.526 187.537 323.825 218.791 323.825C250.045 323.825 275.458 298.447 275.458 267.237C275.458 235.949 250.045 210.65 218.791 210.65C187.537 210.65 162.123 235.949 162.123 267.237ZM174.751 267.237C174.751 242.963 194.482 223.26 218.791 223.26C243.099 223.26 262.83 242.963 262.83 267.237C262.83 291.512 243.099 311.215 218.791 311.215C194.482 311.215 174.751 291.512 174.751 267.237Z" fill="#00B5F2"/>
<path d="M174.912 300.602L156.886 318.602L167.434 329.135L185.46 311.135L174.912 300.602Z" fill="#332A75"/>
<path d="M249.997 298.313C267.196 281.139 267.196 253.294 249.997 236.12C232.799 218.946 204.915 218.946 187.716 236.12C170.518 253.294 170.518 281.139 187.716 298.313C204.915 315.487 232.799 315.487 249.997 298.313Z" fill="#DADEF2"/>
<path d="M238.285 306.722L203.874 225.861C208.531 224.206 213.582 223.26 218.791 223.26C221.869 223.26 224.789 223.575 227.709 224.127L256.043 290.724C251.781 297.58 245.625 303.097 238.285 306.722Z" fill="white"/>
<path d="M197.166 228.935L229.13 310.033C225.815 310.821 222.342 311.294 218.791 311.294C218.712 311.294 218.633 311.294 218.554 311.294L188.563 235.318C191.246 232.796 194.088 230.668 197.166 228.935Z" fill="white"/>
<path d="M106.64 366.147L132.29 340.533C132.921 339.903 134.026 339.903 134.658 340.533L145.47 351.33C146.102 351.961 146.102 353.064 145.47 353.695L119.662 379.466C117.847 381.279 115.479 382.225 113.032 382.225C110.665 382.225 108.218 381.279 106.403 379.466C102.772 375.841 103.009 369.772 106.64 366.147Z" fill="#DADEF2"/>
<path d="M145.644 80.9175C160.561 66.021 160.561 41.869 145.644 26.9725C130.726 12.076 106.54 12.076 91.6224 26.9725C76.7048 41.869 76.7048 66.021 91.6224 80.9175C106.54 95.814 130.726 95.814 145.644 80.9175Z" fill="#00B5F2"/>
<path d="M114.532 73.1223C113.19 73.1223 111.927 72.5707 110.901 71.6249L97.4843 58.2268C95.5112 56.2565 95.5112 53.0252 97.4843 51.0549C99.4574 49.0845 102.693 49.0845 104.666 51.0549L113.901 60.2759L131.895 36.6322C133.632 34.4254 136.789 33.9525 138.998 35.6864C141.208 37.4203 141.682 40.5728 139.946 42.7795L118.399 70.9944C117.531 72.1766 116.189 72.8859 114.69 72.9647C114.769 73.1223 114.611 73.1223 114.532 73.1223Z" fill="white"/>
</svg>
