<svg width="157" height="71" viewBox="0 0 157 71" fill="none" xmlns="http://www.w3.org/2000/svg">
<g id="Logo">
<path id="Vector" d="M59.9893 10.2553C53.3523 3.66396 44.5279 0.0344238 35.1409 0.0344238C34.1351 0.0344238 33.3187 0.845584 33.3187 1.84426C33.3187 2.84294 34.1351 3.65346 35.1409 3.65346C43.5548 3.65346 51.4641 6.90667 57.4119 12.8137L57.4135 12.8152C63.3613 18.7205 66.6369 26.5749 66.6369 34.9291C66.6369 35.9278 67.4538 36.7376 68.4595 36.7376C69.4653 36.7376 70.2809 35.9278 70.2809 34.9291C70.2809 25.6088 66.627 16.847 59.9908 10.2574L59.9893 10.2553Z" fill="white"/>
<path id="Vector_2" d="M35.1409 66.2038C26.7276 66.2038 18.8181 62.9508 12.87 57.0438L12.8691 57.0432C6.92083 51.1364 3.64483 43.2824 3.64483 34.9291C3.64483 33.9289 2.82902 33.1192 1.8222 33.1192C0.816462 33.1192 0 33.9289 0 34.9291C0 44.2487 3.65519 53.0105 10.2911 59.6001L10.2926 59.6016C16.9297 66.1927 25.7538 69.8225 35.1409 69.8225C36.1477 69.8225 36.9626 69.0126 36.9626 68.0124C36.9626 67.0137 36.1477 66.2038 35.1409 66.2038Z" fill="white"/>
<path id="Vector_3" d="M35.1409 53.4535C34.1351 53.4535 33.3187 54.2632 33.3187 55.2621V63.1677C33.3187 64.1673 34.1351 64.9772 35.1409 64.9772C36.1477 64.9772 36.9626 64.1673 36.9626 63.1677V55.2621C36.9626 54.2632 36.1477 53.4535 35.1409 53.4535Z" fill="white"/>
<path id="Vector_4" d="M35.1409 16.4048C36.1477 16.4048 36.9626 15.5935 36.9626 14.5948V6.68978C36.9626 5.69025 36.1477 4.87973 35.1409 4.87973C34.1351 4.87973 33.3187 5.69025 33.3187 6.68978V14.5948C33.3187 15.5935 34.1351 16.4048 35.1409 16.4048Z" fill="white"/>
<path id="Vector_5" d="M63.58 33.1192H55.6182C54.6116 33.1192 53.7962 33.9289 53.7962 34.9291C53.7962 35.9278 54.6116 36.7376 55.6182 36.7376H63.58C64.5863 36.7376 65.4011 35.9278 65.4011 34.9291C65.4011 33.9289 64.5863 33.1192 63.58 33.1192Z" fill="white"/>
<path id="Vector_6" d="M6.70218 36.7376H14.6631C15.6699 36.7376 16.4857 35.9278 16.4857 34.9291C16.4857 33.9289 15.6699 33.1192 14.6631 33.1192H6.70218C5.69644 33.1192 4.87976 33.9289 4.87976 34.9291C4.87976 35.9278 5.69644 36.7376 6.70218 36.7376Z" fill="white"/>
<path id="Vector_7" d="M20.5225 31.121L34.4695 36.6105L34.5238 36.6264C34.5968 36.6521 34.6717 36.674 34.7477 36.6907L34.8392 36.7104C34.9367 36.7269 35.0353 36.7376 35.1357 36.7376L35.1409 36.7383H35.1415L35.1463 36.7376C35.26 36.7376 35.3714 36.7233 35.4823 36.7021L35.5736 36.6817C35.6779 36.6566 35.7795 36.624 35.8771 36.581L35.9038 36.572L59.4632 25.7909C60.3776 25.3728 60.7764 24.2978 60.3556 23.3905C59.9336 22.4833 58.8517 22.0864 57.9381 22.5045L35.0874 32.9604L21.866 27.7559C20.9291 27.3869 19.8703 27.8427 19.4999 28.7711C19.1298 29.7004 19.5869 30.7513 20.5225 31.121Z" fill="#72898B"/>
<path id="Vector_8" fill-rule="evenodd" clip-rule="evenodd" d="M68.5066 36.737L68.5532 36.7353L68.5996 36.7323L68.6458 36.7282L68.6916 36.7231L68.7369 36.7169L68.782 36.7094L68.8267 36.701L68.8709 36.6914L68.9147 36.6807L68.9581 36.6691L69.0011 36.6565H69.0013L69.0436 36.6427H69.0438L69.0857 36.6279H69.0859L69.1273 36.6123L69.1685 36.5956L69.2091 36.5778L69.249 36.5594H69.2493L69.2888 36.5399L69.3276 36.5193H69.3278L69.366 36.4981H69.3662L69.404 36.4758L69.4411 36.4526H69.4414L69.4778 36.4289H69.478L69.5139 36.404H69.5141L69.5493 36.3783H69.5495L69.584 36.3519H69.5842L69.6181 36.3247H69.6183L69.6842 36.2677H69.6844C69.7489 36.2094 69.8093 36.1464 69.865 36.0795H69.8652C70.1251 35.7669 70.2809 35.3661 70.2809 34.9291C70.2809 25.6337 66.646 16.8939 60.0442 10.3104L60.0209 10.2857C66.638 16.8725 70.2816 25.6219 70.2816 34.9291C70.2816 35.3659 70.1253 35.7671 69.8652 36.0795H69.865C69.8093 36.1466 69.7489 36.2092 69.6844 36.2677H69.6842C69.6626 36.2872 69.6408 36.3063 69.6183 36.3247H69.6181L69.5842 36.3519H69.584L69.5495 36.3783H69.5493L69.5141 36.404H69.5139L69.478 36.4289H69.4778L69.4414 36.4526H69.4411L69.404 36.4758L69.3662 36.4981H69.366L69.3278 36.5193H69.3276L69.2888 36.5399L69.2493 36.5594H69.249L69.2091 36.5778L69.1685 36.5956L69.1273 36.6123L69.0859 36.6279H69.0857L69.0438 36.6427H69.0436L69.0013 36.6565H69.0011L68.9581 36.6691L68.9147 36.6807L68.8709 36.6914L68.8267 36.701L68.782 36.7094L68.7369 36.7169L68.6916 36.7231L68.6458 36.7282L68.5996 36.7323L68.5532 36.7353L68.5066 36.737ZM66.6249 34.0522L66.6169 33.7969L66.6067 33.5421L66.5946 33.2877L66.5806 33.0338L66.5644 32.78L66.5461 32.5269V32.5267L66.526 32.274V32.2738L66.5038 32.0216L66.5036 32.0214L66.4794 31.7696V31.7693L66.4533 31.518L66.4531 31.5177L66.425 31.2668L66.4248 31.2666L66.3946 31.0161V31.0158L66.3624 30.7657H66.3622L66.3281 30.5159L66.2918 30.2666V30.2664L66.2536 30.0178L66.2534 30.0176L66.2133 29.7694L66.1712 29.5217L66.171 29.5215L66.1269 29.2744V29.2741L66.0808 29.0275V29.0273L66.0326 28.7812V28.781L65.9826 28.5354V28.5352L65.9305 28.2903L65.9303 28.29L65.8766 28.0457L65.8764 28.0455L65.8207 27.8016L65.8205 27.8014L65.7626 27.5582V27.558L65.7028 27.3154L65.7026 27.3151L65.6411 27.073L65.6409 27.0728L65.5775 26.8312L65.5772 26.831C65.5341 26.6701 65.4898 26.51 65.4441 26.3499L65.4439 26.3497L65.3746 26.1101L65.3744 26.1099L65.3031 25.8709L65.3029 25.8707C65.2548 25.7115 65.2054 25.5529 65.1547 25.3945L65.1544 25.3943L65.0774 25.1575L65.0772 25.1571L64.9984 24.9209L64.9982 24.9207C64.9181 24.6845 64.8355 24.4496 64.7498 24.2156L64.7496 24.2154C64.6926 24.0594 64.6341 23.904 64.5745 23.749L64.5743 23.7486L64.4841 23.5167L64.4839 23.5165C64.423 23.362 64.3611 23.2081 64.2976 23.0547L64.2974 23.0543L64.2016 22.8247L64.2014 22.8245C64.1368 22.6715 64.071 22.5191 64.0039 22.3672C64.0708 22.5191 64.1368 22.6715 64.2014 22.8245L64.2016 22.8247L64.2974 23.0543L64.2976 23.0547C64.3611 23.2081 64.423 23.3622 64.4839 23.5165L64.4841 23.5167L64.5743 23.7486L64.5745 23.749C64.6341 23.904 64.6924 24.0596 64.7496 24.2154L64.7498 24.2156C64.8355 24.4496 64.9181 24.6845 64.9982 24.9207L64.9984 24.9209L65.0772 25.1571L65.0774 25.1575L65.1544 25.3943L65.1547 25.3945C65.2054 25.5529 65.2548 25.7115 65.3029 25.8707L65.3031 25.8709L65.3744 26.1099L65.3746 26.1101L65.4439 26.3497L65.4441 26.3499C65.4898 26.5098 65.5341 26.6701 65.5772 26.831L65.5775 26.8312L65.6409 27.0728L65.6411 27.073L65.7026 27.3151L65.7028 27.3154L65.7626 27.558V27.5582L65.8205 27.8014L65.8207 27.8016L65.8764 28.0455L65.8766 28.0457L65.9303 28.29L65.9305 28.2903L65.9826 28.5352V28.5354L66.0326 28.781V28.7812L66.0808 29.0273V29.0275L66.1269 29.2741V29.2744L66.171 29.5215L66.1712 29.5217L66.2133 29.7694L66.2534 30.0176L66.2536 30.0178L66.2918 30.2664V30.2666L66.3281 30.5159L66.3622 30.7657H66.3624L66.3946 31.0158V31.0161L66.4248 31.2666L66.425 31.2668L66.4531 31.5177L66.4533 31.518L66.4794 31.7693V31.7696L66.5036 32.0214L66.5038 32.0216L66.526 32.2738V32.274L66.5461 32.5267V32.5269L66.5644 32.78L66.5806 33.0338L66.5946 33.2877L66.6067 33.5421L66.6169 33.7969L66.6249 34.0522Z" fill="url(#paint0_radial_4_609)"/>
<path id="Vector_9" d="M68.4596 36.7376C67.4539 36.7376 66.637 35.9278 66.637 34.9291C66.637 34.886 66.637 34.8438 66.637 34.8005C66.6361 34.7182 66.6361 34.6357 66.6346 34.5541C66.6346 34.511 66.6339 34.4694 66.6331 34.4263C66.6331 34.415 66.6331 34.403 66.6324 34.3907C66.6324 34.3779 66.6324 34.3644 66.6316 34.3507C66.6316 34.3447 66.6316 34.3395 66.6316 34.3333C66.6316 34.3252 66.6309 34.3168 66.6309 34.3076C66.525 28.8536 65.0198 23.6288 62.2864 19.0417C60.9494 16.7973 59.3177 14.7052 57.4129 12.8137C57.7692 13.1666 58.2352 13.3437 58.7011 13.3437C59.1677 13.3437 59.6337 13.1666 59.99 12.8137C60.683 12.1249 60.7012 11.021 60.0442 10.3103C66.646 16.8939 70.2809 25.6336 70.2809 34.9291C70.2809 35.9278 69.4653 36.7376 68.4596 36.7376Z" fill="#A8BEF7"/>
<path id="Vector_10" d="M57.4128 12.8137C55.2351 10.6513 52.7942 8.84446 50.1629 7.42316C45.6062 4.96139 40.4745 3.65346 35.1409 3.65346C34.1351 3.65346 33.3187 2.84294 33.3187 1.84426C33.3187 0.845584 34.1351 0.0344238 35.1409 0.0344238C39.614 0.0344238 43.9599 0.859085 48.002 2.43469V2.43554C48.0035 2.43554 48.0044 2.43619 48.0059 2.43704C52.4258 4.16073 56.4824 6.7843 59.9451 10.2113C59.5948 9.88707 59.148 9.72527 58.7011 9.72527C58.2351 9.72527 57.7691 9.90143 57.4128 10.2544C56.7008 10.9614 56.7008 12.1075 57.4128 12.8137Z" fill="#8DA9AB"/>
<path id="Vector_11" fill-rule="evenodd" clip-rule="evenodd" d="M60.0455 10.3112C60.0269 10.293 60.0092 10.2753 59.9915 10.2578L59.9899 10.2556C59.9753 10.2412 59.9598 10.2258 59.9451 10.2114C59.9606 10.2258 59.9753 10.2403 59.9906 10.2548C60.0092 10.2731 60.0278 10.2921 60.0455 10.3112Z" fill="url(#paint1_radial_4_609)"/>
<path id="Vector_12" d="M58.7011 13.3437C58.2351 13.3437 57.7692 13.1667 57.4128 12.8137C56.7008 12.1075 56.7008 10.9614 57.4128 10.2544C57.7692 9.90144 58.2351 9.72528 58.7011 9.72528C59.1481 9.72528 59.5948 9.88708 59.9451 10.2113C59.9596 10.2257 59.9749 10.2409 59.9894 10.2553L59.9909 10.2574C60.0083 10.2748 60.0258 10.2923 60.0442 10.3103C60.7011 11.021 60.683 12.1249 59.99 12.8137C59.6337 13.1667 59.1677 13.3437 58.7011 13.3437Z" fill="#5541D7"/>
<path id="Vector_13" fill-rule="evenodd" clip-rule="evenodd" d="M35.7668 64.8672C35.767 64.8672 35.767 64.8672 35.7672 64.8672C35.7672 64.8672 35.767 64.8672 35.7668 64.8672ZM35.773 64.8651C36.4678 64.6103 36.9626 63.9465 36.9626 63.1677V59.2658C36.9633 59.2493 36.9635 59.2317 36.9635 59.2152V63.1677C36.9635 63.9465 36.4678 64.6103 35.773 64.8651Z" fill="url(#paint2_radial_4_609)"/>
<path id="Vector_14" d="M35.1409 64.9772C34.1351 64.9772 33.3187 64.1673 33.3187 63.1678V55.2621V59.2152C33.3187 60.2146 34.1351 61.0236 35.1409 61.0236C36.1298 61.0236 36.9352 60.2418 36.9626 59.2658V63.1678C36.9626 63.9466 36.4678 64.6103 35.773 64.8651C35.7726 64.8651 35.773 64.8651 35.7726 64.8651C35.7717 64.8657 35.7709 64.8657 35.77 64.8657C35.7691 64.8668 35.7683 64.8668 35.7672 64.8672C35.767 64.8672 35.767 64.8672 35.7668 64.8672C35.5716 64.9384 35.3608 64.9772 35.1409 64.9772Z" fill="#00B5F2"/>
<path id="Vector_15" fill-rule="evenodd" clip-rule="evenodd" d="M36.9626 59.2658V55.2621C36.9626 54.7645 36.7598 54.3125 36.4311 53.9846H36.4308C36.4067 53.9606 36.3825 53.9374 36.357 53.9147C36.3823 53.9372 36.4067 53.9606 36.4308 53.9846H36.4311C36.7598 54.3116 36.9635 54.7632 36.9635 55.2621V59.2152C36.9635 59.2317 36.9633 59.2493 36.9626 59.2658ZM33.3193 55.2158L33.321 55.1697L33.3238 55.1239L33.3279 55.0786V55.0784L33.3331 55.0334V55.0332L33.3394 54.9886V54.9884L33.3467 54.9443V54.9441L33.3551 54.9003V54.9001L33.3646 54.8566V54.8564L33.3752 54.8133V54.8131L33.3869 54.7705V54.7703L33.3994 54.728V54.7278L33.413 54.686V54.6858L33.4277 54.6447V54.6442L33.4432 54.6035V54.6033L33.4598 54.563V54.5626L33.4773 54.5229V54.5225L33.4959 54.4833V54.4831L33.5151 54.4443V54.4441L33.5353 54.4057V54.4055L33.5567 54.3678V54.3676C33.5928 54.305 33.6325 54.2443 33.6756 54.1867V54.1865L33.7018 54.1524V54.1522L33.7568 54.0855V54.0853L33.7855 54.0532V54.053L33.8148 54.0215V54.0212L33.8448 53.9906V53.9904C33.8649 53.9702 33.8861 53.9503 33.9074 53.9308C33.8863 53.9503 33.8651 53.97 33.8448 53.9904V53.9906L33.8148 54.0212V54.0215L33.7855 54.053V54.0532L33.7568 54.0853V54.0855C33.738 54.1072 33.7194 54.1295 33.7018 54.1522V54.1524L33.6756 54.1865V54.1867C33.6325 54.2443 33.5928 54.3048 33.5567 54.3676V54.3678L33.5353 54.4055V54.4057L33.5151 54.4441V54.4443L33.4959 54.4831V54.4833L33.4773 54.5225V54.5229L33.4598 54.5626V54.563L33.4432 54.6033V54.6035L33.4277 54.6442V54.6447L33.413 54.6858V54.686L33.3994 54.7278V54.728L33.3869 54.7703V54.7705L33.3752 54.8131V54.8133L33.3646 54.8564V54.8566L33.3551 54.9001V54.9003L33.3467 54.9441V54.9443L33.3394 54.9884V54.9886L33.3331 55.0332V55.0334L33.3279 55.0784V55.0786L33.3238 55.1239L33.321 55.1697L33.3193 55.2158Z" fill="url(#paint3_radial_4_609)"/>
<path id="Vector_16" d="M35.1409 61.0236C34.1351 61.0236 33.3187 60.2146 33.3187 59.2152V55.2621C33.3187 54.2707 34.1224 53.4655 35.1176 53.4535C35.1251 53.4535 35.1333 53.4535 35.1409 53.4535C35.3608 53.4535 35.5716 53.4921 35.767 53.5624C35.767 53.5631 35.7672 53.563 35.7672 53.563C35.7683 53.563 35.7691 53.5639 35.77 53.5639C35.7709 53.5639 35.7717 53.5645 35.7726 53.5645C35.773 53.5645 35.7726 53.5645 35.773 53.5645C36.4678 53.8202 36.9626 54.4839 36.9626 55.2621V59.2658C36.9352 60.2418 36.1298 61.0236 35.1409 61.0236Z" fill="#DE2318"/>
<path id="Vector_17" d="M33.3187 14.5948V6.68978C33.3187 5.69025 34.1351 4.87973 35.1409 4.87973C35.5995 4.87973 36.0186 5.04839 36.3389 5.32656C36.7213 5.65767 36.9626 6.14608 36.9626 6.68978V10.5917C36.9352 9.61553 36.1298 8.83309 35.1409 8.83309C34.1351 8.83309 33.3187 9.64275 33.3187 10.6429V14.5948Z" fill="#00B5F2"/>
<path id="Vector_18" d="M35.1409 16.4049C34.1351 16.4049 33.3187 15.5935 33.3187 14.5948V10.6429C33.3187 9.64276 34.1351 8.8331 35.1409 8.8331C36.1298 8.8331 36.9352 9.61554 36.9626 10.5917V14.5948C36.9626 15.1385 36.7213 15.6269 36.3389 15.958C36.0186 16.2362 35.5995 16.4049 35.1409 16.4049Z" fill="#DE2318"/>
<path id="Vector_19" fill-rule="evenodd" clip-rule="evenodd" d="M64.7478 36.3172C65.1478 35.9854 65.4016 35.4863 65.4016 34.9291C65.4016 34.3704 65.1478 33.8715 64.7478 33.5395C65.1478 33.8715 65.4025 34.3704 65.4025 34.9291C65.4025 35.4863 65.1478 35.9854 64.7478 36.3172Z" fill="url(#paint4_radial_4_609)"/>
<path id="Vector_20" d="M63.58 36.7376H59.5987C60.6044 36.7376 61.4215 35.9278 61.4215 34.9291C61.4215 33.9289 60.6044 33.1192 59.5987 33.1192H55.6183H63.58C64.0237 33.1192 64.4312 33.2772 64.7478 33.5395C65.1475 33.8715 65.4011 34.3704 65.4011 34.9291C65.4011 35.4863 65.1475 35.9854 64.7478 36.3172C64.4312 36.5795 64.0237 36.7376 63.58 36.7376Z" fill="#E6CA16"/>
<path id="Vector_21" fill-rule="evenodd" clip-rule="evenodd" d="M55.6183 36.7376C54.6117 36.7376 53.7954 35.9278 53.7954 34.9291C53.7954 33.9313 54.6086 33.1222 55.6122 33.1192C54.6086 33.1222 53.7963 33.9313 53.7963 34.9291C53.7963 35.9278 54.6117 36.7376 55.6183 36.7376Z" fill="url(#paint5_radial_4_609)"/>
<path id="Vector_22" d="M59.5987 36.7376H55.6182C54.6116 36.7376 53.7962 35.9278 53.7962 34.9291C53.7962 33.9313 54.6086 33.1222 55.6122 33.1192C55.6137 33.1192 55.6158 33.1192 55.6182 33.1192H59.5987C60.6044 33.1192 61.4215 33.9289 61.4215 34.9291C61.4215 35.9278 60.6044 36.7376 59.5987 36.7376Z" fill="#CFA002"/>
<path id="Vector_23" d="M10.683 36.7376H6.70218C5.69644 36.7376 4.87976 35.9278 4.87976 34.9291C4.87976 33.9289 5.69644 33.1192 6.70218 33.1192H14.6631H10.683C9.67688 33.1192 8.86085 33.9289 8.86085 34.9291C8.86085 35.9278 9.67688 36.7376 10.683 36.7376Z" fill="#A8BEF7"/>
<path id="Vector_24" d="M14.663 36.7376H10.683C9.67687 36.7376 8.86084 35.9278 8.86084 34.9291C8.86084 33.9289 9.67687 33.1192 10.683 33.1192H14.663C15.6692 33.1192 16.4857 33.9289 16.4857 34.9291C16.4857 34.9306 16.4857 34.9329 16.4857 34.9344C16.4824 35.931 15.6675 36.7376 14.663 36.7376Z" fill="#B0BCBC"/>
<path id="Vector_25" d="M35.1404 36.7376C35.129 36.7376 35.1178 36.7376 35.1063 36.7376C35.1005 36.7376 35.0945 36.7368 35.0889 36.7368C35.1061 36.7376 35.1236 36.7376 35.1413 36.7376C35.1409 36.7376 35.1407 36.7376 35.1404 36.7376ZM34.4766 36.6129L34.4694 36.6106L20.5225 31.1202C20.2076 30.9963 19.9471 30.7944 19.7537 30.5465C19.373 30.0572 19.2543 29.3875 19.4999 28.7711C19.7831 28.062 20.4692 27.628 21.1948 27.628C21.4179 27.628 21.645 27.6698 21.8649 27.7559L35.0865 32.9611L34.3782 33.2856C33.4644 33.7037 33.0651 34.778 33.4859 35.686C33.6914 36.1275 34.0533 36.4481 34.4766 36.6129Z" fill="#8DA9AB"/>
<path id="Vector_26" fill-rule="evenodd" clip-rule="evenodd" d="M35.1681 36.7376C35.1726 36.7376 35.1769 36.7376 35.1815 36.7376C35.4312 36.7314 35.6751 36.6749 35.8989 36.5735L35.9038 36.572C35.6654 36.6809 35.4148 36.7338 35.1681 36.7376ZM59.987 25.4303C60.5132 24.9101 60.6845 24.099 60.3556 23.3905C60.0478 22.7283 59.3885 22.3382 58.6996 22.3382C58.4445 22.3382 58.1848 22.3918 57.9382 22.5045C58.1855 22.3911 58.4451 22.3374 58.7002 22.3374C59.3894 22.3374 60.0487 22.7283 60.3562 23.3905C60.6852 24.099 60.5132 24.9101 59.987 25.4303Z" fill="url(#paint6_radial_4_609)"/>
<path id="Vector_27" fill-rule="evenodd" clip-rule="evenodd" d="M35.1814 36.7368C35.2831 36.7338 35.383 36.7202 35.4823 36.7014L35.5736 36.6812C35.6778 36.6562 35.7795 36.6238 35.877 36.5809L35.8988 36.5735C35.675 36.6744 35.4311 36.7307 35.1814 36.7368ZM35.0888 36.736C34.878 36.73 34.6708 36.6878 34.4765 36.6127L34.5238 36.6262C34.5967 36.6517 34.6716 36.6735 34.7476 36.6901L34.8391 36.7098C34.9211 36.7232 35.0044 36.7338 35.0888 36.736Z" fill="url(#paint7_radial_4_609)"/>
<path id="Vector_28" d="M35.1413 36.7376C35.1236 36.7376 35.1061 36.7376 35.0889 36.7368C35.0045 36.7346 34.9212 36.7239 34.8392 36.7104L34.7476 36.6907C34.6717 36.674 34.5968 36.6521 34.5238 36.6264L34.4766 36.6129C34.0533 36.4481 33.6914 36.1275 33.4859 35.686C33.0651 34.778 33.4644 33.7037 34.3782 33.2855L35.0865 32.9611L35.8125 33.247C36.7479 33.6143 37.2059 34.6661 36.8347 35.5951C36.6544 36.0465 36.3115 36.3859 35.8988 36.5735L35.877 36.581C35.7795 36.624 35.6778 36.6566 35.5736 36.6817L35.4823 36.7021C35.383 36.7209 35.2831 36.7346 35.1814 36.7376C35.1681 36.7376 35.1547 36.7376 35.1413 36.7376Z" fill="#5541D7"/>
<path id="Vector_29" d="M1.82308 33.1195C2.82882 33.1195 3.64571 33.9294 3.64571 34.928C3.64571 34.9711 3.64571 35.0133 3.64571 35.0566C3.64657 35.1389 3.64657 35.2214 3.64808 35.3031C3.64808 35.3461 3.64873 35.3877 3.64959 35.4308C3.64959 35.4422 3.64959 35.4542 3.65024 35.4664C3.65024 35.4792 3.65024 35.4927 3.6511 35.5065C3.6511 35.5125 3.6511 35.5176 3.6511 35.5238C3.6511 35.532 3.65175 35.5403 3.65175 35.5495C3.75772 41.0035 5.26288 46.2283 7.99629 50.8154C9.33331 53.0599 10.9649 55.152 12.8698 57.0434C12.5135 56.6905 12.0475 56.5135 11.5816 56.5135C11.1149 56.5135 10.649 56.6905 10.2927 57.0434C9.59964 57.7322 9.58151 58.8361 10.2385 59.5468C3.63664 52.9632 0.0017395 44.2235 0.0017395 34.928C0.0017395 33.9294 0.817338 33.1195 1.82308 33.1195Z" fill="#8DA9AB"/>
<path id="Vector_30" d="M12.8698 57.0434C15.0475 59.2058 17.4884 61.0126 20.1198 62.4339C24.6765 64.8957 29.8081 66.2036 35.1418 66.2036C36.1475 66.2036 36.964 67.0142 36.964 68.0128C36.964 69.0115 36.1475 69.8227 35.1418 69.8227C30.6686 69.8227 26.3228 68.998 22.2806 67.4224V67.4216C22.2791 67.4216 22.2782 67.4209 22.2767 67.4201C17.8569 65.6964 13.8002 63.0728 10.3376 59.6458C10.6878 59.97 11.1346 60.1318 11.5816 60.1318C12.0475 60.1318 12.5135 59.9557 12.8698 59.6027C13.5818 58.8957 13.5818 57.7496 12.8698 57.0434Z" fill="#00B5F2"/>
<path id="Vector_31" d="M11.5816 56.5135C12.0475 56.5135 12.5135 56.6905 12.8698 57.0434C13.5818 57.7496 13.5818 58.8957 12.8698 59.6027C12.5135 59.9557 12.0475 60.1319 11.5816 60.1319C11.1346 60.1319 10.6878 59.97 10.3376 59.6458C10.3231 59.6314 10.3078 59.6162 10.2933 59.6019L10.2918 59.5997C10.2743 59.5824 10.2568 59.5648 10.2385 59.5468C9.58152 58.8361 9.59965 57.7322 10.2927 57.0434C10.649 56.6905 11.115 56.5135 11.5816 56.5135Z" fill="#5541D7"/>
<path id="Vector_32" d="M68.8019 54.7019V50.4682H69.472V54.7019H74.1925V55.3069H69.472V65.7703C69.472 66.5969 69.7003 67.3026 70.1572 67.8873C70.6139 68.4719 71.2029 68.8853 71.9235 69.127C72.6444 69.369 73.4006 69.3891 74.1925 69.1877V69.732C73.5429 69.9133 72.8982 69.9536 72.2585 69.8529C71.619 69.7522 71.0404 69.5203 70.5226 69.1575C70.0049 68.7944 69.5888 68.3257 69.2741 67.7512C68.9592 67.1766 68.8019 66.5163 68.8019 65.7703V55.3069H66.3046V54.7019H68.8019Z" fill="#2B2A29"/>
<path id="1" d="M78.3343 54.7019H79.0043V69.8227H78.3343V54.7019ZM78.6997 50.6195C78.4967 50.6195 78.3292 50.5589 78.1973 50.438C78.0652 50.3169 77.9994 50.1557 77.9994 49.9541C77.9994 49.7323 78.0652 49.561 78.1973 49.4399C78.3292 49.3191 78.4967 49.2586 78.6997 49.2586C78.8623 49.2586 79.0094 49.3191 79.1413 49.4399C79.2734 49.561 79.3392 49.7323 79.3392 49.9541C79.3392 50.1557 79.2734 50.3169 79.1413 50.438C79.0094 50.5589 78.8623 50.6195 78.6997 50.6195Z" fill="#2B2A29"/>
<path id="2" d="M84.5473 54.7019H85.2172V58.6032C85.5217 57.4135 86.1004 56.4359 86.9531 55.6697C87.8058 54.9036 89.014 54.5206 90.5774 54.5206C91.8564 54.5206 92.9832 54.8834 93.9579 55.6093C94.9323 56.3349 95.5923 57.454 95.9374 58.966C96.2825 57.3934 96.9628 56.2595 97.9778 55.5638C98.993 54.8684 100.191 54.5206 101.572 54.5206C102.627 54.5206 103.587 54.7625 104.45 55.2462C105.313 55.7301 105.998 56.471 106.505 57.469C107.013 58.4671 107.267 59.7523 107.267 61.3249V69.8227H106.597V61.2947C106.597 59.2986 106.15 57.7714 105.257 56.713C104.363 55.6545 103.135 55.1254 101.572 55.1254C99.9474 55.1254 98.6428 55.7252 97.6582 56.9247C96.6734 58.1244 96.1811 59.9036 96.1811 62.2623V69.8227H95.5111V61.2947C95.5111 59.2986 95.0795 57.7714 94.2166 56.713C93.3538 55.6545 92.1305 55.1254 90.5468 55.1254C88.9022 55.1254 87.6029 55.7252 86.6486 56.9247C85.6944 58.1244 85.2172 59.9036 85.2172 62.2623V69.8227H84.5473V54.7019Z" fill="#2B2A29"/>
<path id="3" d="M118.109 70.0344C116.728 70.0344 115.515 69.7018 114.469 69.0364C113.424 68.3712 112.607 67.4437 112.018 66.2542C111.429 65.0648 111.135 63.6836 111.135 62.1112C111.135 60.6192 111.434 59.2986 112.033 58.1495C112.632 57.0004 113.454 56.1033 114.5 55.458C115.545 54.8129 116.748 54.4904 118.109 54.4904C119.408 54.4904 120.565 54.7776 121.581 55.3521C122.596 55.9267 123.398 56.7029 123.987 57.6808C124.576 58.6587 124.87 59.7725 124.87 61.0225C124.87 61.1635 124.875 61.3451 124.885 61.5669C124.895 61.7887 124.89 62.0204 124.87 62.2623H111.805C111.825 63.6735 112.104 64.9185 112.642 65.9971C113.18 67.0757 113.921 67.9175 114.865 68.5223C115.809 69.1271 116.891 69.4297 118.109 69.4297C119.53 69.4297 120.763 69.1069 121.809 68.4618C122.855 67.8168 123.621 66.8993 124.108 65.7099L124.657 65.9216C124.149 67.2319 123.322 68.2452 122.174 68.9608C121.027 69.6765 119.672 70.0344 118.109 70.0344ZM124.2 61.6575C124.24 60.3672 124.012 59.2281 123.515 58.2402C123.017 57.2524 122.307 56.4813 121.383 55.9267C120.459 55.3723 119.368 55.0952 118.109 55.0952C116.931 55.0952 115.875 55.3774 114.942 55.9419C114.007 56.5064 113.261 57.2826 112.703 58.2706C112.145 59.2583 111.845 60.3873 111.805 61.6575H124.2Z" fill="#2B2A29"/>
<path id="4" d="M138.849 55.3975L128.89 69.2179H139.153V69.8227H128.159V69.1575L138.118 55.3069H128.433V54.7019H138.849V55.3975Z" fill="#2B2A29"/>
<path id="5" d="M149.752 70.0344C148.351 70.0344 147.102 69.722 146.006 69.0968C144.909 68.4719 144.041 67.5797 143.402 66.4206C142.762 65.2614 142.443 63.8752 142.443 62.2623C142.443 60.6696 142.762 59.2886 143.402 58.1193C144.041 56.95 144.909 56.0527 146.006 55.4278C147.102 54.8028 148.351 54.4904 149.752 54.4904C151.153 54.4904 152.396 54.8028 153.482 55.4278C154.569 56.0527 155.426 56.95 156.056 58.1193C156.685 59.2886 157 60.6696 157 62.2623C157 63.8752 156.685 65.2614 156.056 66.4206C155.426 67.5797 154.569 68.4719 153.482 69.0968C152.396 69.722 151.153 70.0344 149.752 70.0344ZM149.752 69.4297C150.889 69.4297 151.96 69.1725 152.965 68.6584C153.97 68.1442 154.782 67.3579 155.401 66.2997C156.02 65.2412 156.33 63.8953 156.33 62.2623C156.33 60.6293 156.02 59.2836 155.401 58.2252C154.782 57.1667 153.97 56.3804 152.965 55.8663C151.96 55.3521 150.889 55.0952 149.752 55.0952C148.615 55.0952 147.544 55.3521 146.539 55.8663C145.534 56.3804 144.716 57.1667 144.087 58.2252C143.458 59.2836 143.143 60.6293 143.143 62.2623C143.143 63.8953 143.458 65.2412 144.087 66.2997C144.716 67.3579 145.534 68.1442 146.539 68.6584C147.544 69.1725 148.615 69.4297 149.752 69.4297Z" fill="#2B2A29"/>
</g>
<defs>
<radialGradient id="paint0_radial_4_609" cx="0" cy="0" r="1" gradientUnits="userSpaceOnUse" gradientTransform="translate(63.0692 -28.9486) rotate(90) scale(342.059 334.835)">
<stop stop-color="#CED5D5"/>
<stop offset="1"/>
</radialGradient>
<radialGradient id="paint1_radial_4_609" cx="0" cy="0" r="1" gradientUnits="userSpaceOnUse" gradientTransform="translate(63.2913 -29.3173) rotate(90) scale(345.501 339.418)">
<stop stop-color="#728D8F"/>
<stop offset="1"/>
</radialGradient>
<radialGradient id="paint2_radial_4_609" cx="0" cy="0" r="1" gradientUnits="userSpaceOnUse" gradientTransform="translate(63.0343 -28.8058) rotate(90) scale(342.053 334.833)">
<stop stop-color="#E75C4C"/>
<stop offset="1"/>
</radialGradient>
<radialGradient id="paint3_radial_4_609" cx="0" cy="0" r="1" gradientUnits="userSpaceOnUse" gradientTransform="translate(63.018 -28.8278) rotate(90) scale(342.053 334.845)">
<stop stop-color="#D82217"/>
<stop offset="1"/>
</radialGradient>
<radialGradient id="paint4_radial_4_609" cx="0" cy="0" r="1" gradientUnits="userSpaceOnUse" gradientTransform="translate(63.0345 -28.8203) rotate(90) scale(342.165 335.133)">
<stop stop-color="#E0C415"/>
<stop offset="1"/>
</radialGradient>
<radialGradient id="paint5_radial_4_609" cx="0" cy="0" r="1" gradientUnits="userSpaceOnUse" gradientTransform="translate(63.0184 -28.8478) rotate(90) scale(342.064 334.833)">
<stop stop-color="#CA9B02"/>
<stop offset="1"/>
</radialGradient>
<radialGradient id="paint6_radial_4_609" cx="0" cy="0" r="1" gradientUnits="userSpaceOnUse" gradientTransform="translate(62.8097 -28.7765) rotate(90) scale(342.052 332.717)">
<stop stop-color="#89A4A6"/>
<stop offset="1"/>
</radialGradient>
<radialGradient id="paint7_radial_4_609" cx="0" cy="0" r="1" gradientUnits="userSpaceOnUse" gradientTransform="translate(63.039 -28.5178) rotate(90) scale(340.361 334.833)">
<stop stop-color="#4C6D6F"/>
<stop offset="1"/>
</radialGradient>
</defs>
</svg>
